<?xml version="1.0" encoding="utf-8"?>
<!-- Generator: Adobe Illustrator 16.0.0, SVG Export Plug-In . SVG Version: 6.00 Build 0)  -->
<!DOCTYPE svg PUBLIC "-//W3C//DTD SVG 1.1//EN" "http://www.w3.org/Graphics/SVG/1.1/DTD/svg11.dtd">
<svg version="1.1" id="Layer_1" xmlns="http://www.w3.org/2000/svg" xmlns:xlink="http://www.w3.org/1999/xlink" x="0px" y="0px"
	 width="612px" height="792px" viewBox="0 0 612 792" enable-background="new 0 0 612 792" xml:space="preserve">
<g>
	<g>
		<g>
			<path fill="#B21F24" d="M299.357,444.324c-17.017,17.647-44.237,22.7-66.969,10.638c-27.55-14.629-38.021-48.775-23.424-76.268
				c5.259-9.91,12.979-17.574,22.108-22.666c-3.62,3.657-6.745,7.958-9.269,12.728c-14.596,27.504-4.127,61.65,23.43,76.271
				C262.831,454.366,283.185,453.47,299.357,444.324z"/>
		</g>
		<g>
			<path fill="#B21F24" d="M221.614,451.8c-3.233,5.109-9.982,6.635-15.101,3.402c-5.11-3.228-6.647-9.977-3.417-15.087
				c3.233-5.127,9.993-6.649,15.105-3.417C223.313,439.935,224.84,446.689,221.614,451.8z"/>
		</g>
	</g>
</g>
<g>
	<path fill="#636467" d="M223.312,324.229c-5.175,3.113-11.902,1.45-15.013-3.726c-3.122-5.172-1.456-11.905,3.724-15.018
		c5.173-3.112,11.891-1.443,15.005,3.732C230.154,314.387,228.485,321.11,223.312,324.229z"/>
	<path fill="#636467" d="M203.774,425.978c-2.042-2.471-3.884-5.146-5.592-7.979c-20.854-34.625-9.691-79.64,24.932-100.499
		c34.633-20.856,79.648-9.689,100.505,24.941c1.7,2.84,3.213,5.717,4.43,8.669c-22.523-28.252-63.104-36.111-94.904-16.962
		C201.347,353.304,189.333,392.837,203.774,425.978z"/>
</g>
<g>
	<g>
		<path fill="#B21F24" d="M260.132,394.544c1.951,0,3.277,1.41,3.277,3.275c0,1.91-1.366,3.277-3.277,3.277
			c-1.99,0-3.316-1.367-3.316-3.277C256.815,395.831,258.227,394.544,260.132,394.544z M257.022,391.515v-23.101h6.14v23.101
			H257.022z"/>
	</g>
</g>
<path fill="#B21F24" d="M316.292,383.298v16.552c-1.862,0.703-5.473,1.577-9.078,1.577c-4.856,0-8.542-1.244-11.241-3.898
	c-2.738-2.696-4.316-7.055-4.316-12.114c0-10.786,7.176-16.547,16.344-16.547c3.235,0,5.929,0.578,7.466,1.324l-1.286,5.063
	c-1.452-0.666-3.275-1.164-6.1-1.164c-5.678,0-9.989,3.485-9.989,11.201c0,7.381,3.936,11.118,9.203,11.118
	c1.492,0,2.614-0.213,3.155-0.458v-7.796h-4.607v-4.857H316.292z"/>
<path fill="#B21F24" d="M340.948,377.99v16.054c0,2.738,0.12,5.1,0.205,7.05h-5.348l-0.29-3.069h-0.126
	c-0.956,1.492-3.069,3.527-6.64,3.527c-4.396,0-7.38-2.864-7.38-9.791V377.99h6.139v12.856c0,3.484,0.996,5.684,3.524,5.684
	c1.993,0,3.776-1.698,3.776-4.312V377.99H340.948z"/>
<path fill="#636467" d="M359.249,377.99h6.39l-5.228,16.054c-2.568,7.463-4.521,11.526-7.136,14.141
	c-2.237,2.158-4.602,2.989-5.968,3.234l-1.538-5.183c0.997-0.293,2.158-0.951,3.235-1.7c2.033-1.452,3.069-3.815,3.069-4.273
	c0-0.248-0.085-0.581-0.245-1.036l-7.757-21.236h6.715l3.405,12.072c0.37,1.41,0.786,3.027,1.076,4.314h0.125
	c0.251-1.247,0.621-2.864,0.957-4.314L359.249,377.99z"/>
<path fill="#B21F24" d="M368.348,395.538c1.202,0.706,3.48,1.53,5.388,1.53c2.158,0,3.194-0.911,3.194-2.318
	c0-1.412-0.786-2.158-3.319-3.237c-4.312-1.74-5.889-4.191-5.889-6.718c0-4.15,3.32-7.3,8.462-7.3c2.364,0,4.396,0.58,5.724,1.284
	l-1.161,4.312c-0.997-0.539-2.614-1.202-4.352-1.202c-1.873,0-2.864,0.956-2.864,2.2c0,1.285,0.871,1.948,3.525,3.067
	c3.896,1.617,5.723,3.858,5.723,7.053c0,4.398-3.319,7.298-9.083,7.298c-2.528,0-4.978-0.621-6.515-1.532L368.348,395.538z"/>
<path fill="#636467" d="M345.755,406.136l1.553,5.309h-97.393v-5.309"/>
<g>
	<g>
		<g>
			<g>
				<path fill="#636467" d="M227.908,401.587h3.74v4.549h18.732v5.331h-18.732v15.777h-3.74V401.587z"/>
			</g>
		</g>
		<path fill="#636467" d="M236.063,394.893c-1.695-1.167-2.309-2.949-2.309-4.354c0-2.892,2.104-5.172,6.896-5.172h9.731v4.323H241
			c-2.073,0-3.681,0.646-3.681,2.514c0,1.082,0.759,2.749,3.185,2.749h9.877v4.324h-23.494v-4.324h9.176V394.893z"/>
		<path fill="#636467" d="M243.543,378.264c2.776-0.12,3.886-2.105,3.886-4.441c0-1.607-0.293-2.864-0.671-3.977l2.979-0.613
			c0.586,1.345,0.937,3.242,0.937,5.261c0,5.027-3.157,7.889-8.212,7.889c-4.677,0-8.708-2.687-8.708-7.451
			c0-3.945,2.805-6.517,8.064-6.517c0.644,0,1.257,0.03,1.725,0.115V378.264z M240.534,372.417
			c-1.695-0.027-3.771,0.644-3.771,2.777c0,2.072,2.163,2.949,3.771,3.069V372.417z"/>
	</g>
</g>
<g>
	
		<text transform="matrix(0.8685 0 0 1 233.7539 423.4961)" fill="#636467" font-family="'AdobeGothicStd-Bold-KSCpc-EUC-H'" font-size="8.8129">Building Solutions | Finding Talent</text>
</g>
<path fill="#636467" d="M294.351,340.595l1.652,20.674h-17.095v39.766h-8.59v-39.766H259.35v-7.427L294.351,340.595z"/>
<g>
	<g>
		<g>
			<g>
				<g>
					<path fill="#636467" d="M258.753,353.225c-1.875,1.812-1,5.185-1,5.185s0.348,3.468,2.733,4.516
						c2.703,1.188,20.114-2.031,37.319,7.462l-3.314-18.543l-3.315-18.545C278.325,348.162,260.877,351.176,258.753,353.225z"/>
				</g>
			</g>
		</g>
		<g>
			<path fill="#ED2224" d="M267.383,349.602L267.383,349.602c-4.478,1.829-7.782,2.803-8.63,3.623c-1.875,1.812-1,5.185-1,5.185
				s0.348,3.468,2.733,4.516c1.063,0.466,4.414,0.253,9.126,0.399C266.151,357.005,267.383,349.602,267.383,349.602z"/>
		</g>
		<g>
			<path fill="#E7E7E7" d="M295.317,356.47c-2.512-1.55-4.39-2.569-4.39-2.569c-4.351,9.581-18.383,7.364-24.629,8.132
				c-6.247,0.77-8.049-1.702-8.049-1.702l0,0c0.389,0.987,1.064,2.08,2.236,2.595c2.703,1.188,20.114-2.031,37.319,7.462
				L295.317,356.47z"/>
		</g>
		<path opacity="0.7" fill="#FFFFFF" d="M262.505,352.496c0,0,14.368-4.655,18.264-8.832l0.002,5.287
			C280.771,348.951,271.797,352.737,262.505,352.496z"/>
	</g>
	<g>
		<g>
			<path fill="#B21F24" d="M291.356,333.263l-7.086,5.205c0,0-3.398,15.269,5.283,29.563l8.435,2.325L291.356,333.263z"/>
			<g>
				<path fill="#ED2224" d="M300.64,350.741c1.833,10.243,0.644,19.022-2.651,19.614c-3.295,0.589-7.448-7.237-9.281-17.481
					c-1.832-10.243-0.646-19.022,2.649-19.611C294.653,332.675,298.813,340.501,300.64,350.741z"/>
			</g>
			<g>
				<g>
					<path fill="#921A1C" d="M299.213,350.996c1.64,9.176,1.057,16.956-1.305,17.377c-2.361,0.42-5.601-6.674-7.243-15.85
						c-1.64-9.171-1.057-16.952,1.307-17.372C294.328,334.728,297.57,341.825,299.213,350.996z"/>
				</g>
			</g>
			<g opacity="0.4">
				<path fill="#AA732A" d="M298.441,366.264c-2.313,0.413-5.49-6.541-7.098-15.53c-1.132-6.337-1.18-11.978-0.303-14.909
					c-1.553,2.105-1.771,8.888-0.376,16.699c1.643,9.176,4.882,16.27,7.243,15.85c0.956-0.172,1.615-1.563,1.955-3.749
					C299.508,365.573,299.035,366.158,298.441,366.264z"/>
			</g>
			<g>
				<defs>
					<path id="SVGID_1_" d="M299.213,350.996c1.64,9.176,1.057,16.956-1.305,17.377c-2.361,0.42-5.601-6.674-7.243-15.85
						c-1.64-9.171-1.057-16.952,1.307-17.372C294.328,334.728,297.57,341.825,299.213,350.996z"/>
				</defs>
				<clipPath id="SVGID_2_">
					<use xlink:href="#SVGID_1_"  overflow="visible"/>
				</clipPath>
			</g>
		</g>
		<g>
			<path fill="#636467" d="M293.057,361.682l2.618-3.755l-2.093-11.05l-3.733-0.848
				C289.849,346.029,290.109,353.513,293.057,361.682z"/>
		</g>
		<g>
			<path fill="#898989" d="M296.719,352.044c0.578,3.049,0.11,5.679-1.044,5.883c-1.154,0.192-2.559-2.123-3.137-5.176
				c-0.576-3.044-0.11-5.678,1.044-5.874C294.736,346.68,296.138,348.996,296.719,352.044z"/>
		</g>
	</g>
</g>
</svg>
